<svg width="299" height="295" viewBox="0 0 299 295" fill="none" xmlns="http://www.w3.org/2000/svg">
<path d="M120.851 4.06753C127.927 4.19068 135.222 4.47284 142.539 4.75588C152.371 5.13616 162.244 5.51804 171.683 5.51804C176.87 5.51804 179.554 6.09124 184.219 8.19918C185.886 8.9529 187.66 9.35391 189.248 9.62377C190.262 9.79606 191.396 9.94227 192.427 10.0752C192.937 10.141 193.421 10.2035 193.854 10.2643C196.928 10.6964 198.603 11.2198 199.55 12.1091C201.4 13.8453 203.127 14.7389 204.867 15.3477C205.567 15.5923 206.279 15.7935 206.889 15.9655C206.965 15.9871 207.04 16.0083 207.113 16.0291C207.805 16.2254 208.445 16.4132 209.133 16.6631C209.33 16.7345 209.712 16.9897 210.693 17.8618C210.73 17.8948 210.769 17.9292 210.809 17.9649C211.186 18.3014 211.689 18.7502 212.196 19.1353C212.739 19.5479 213.6 20.1383 214.691 20.4553C218.487 21.5582 221.061 23.707 224.552 26.9022C226.506 28.6909 229.663 30.256 232.37 31.44C235.231 32.6918 238.203 33.7721 240.19 34.4713C241.441 34.9115 242.737 35.8311 244.461 37.2667C244.73 37.4908 245.016 37.7331 245.315 37.9875C246.722 39.1817 248.441 40.6411 250.247 41.7212C251.833 42.6698 253.997 44.0835 255.824 45.6737C257.827 47.4172 258.694 48.7523 258.843 49.4314C259.073 50.4867 259.579 51.4363 259.984 52.1032C260.429 52.8362 260.96 53.5601 261.491 54.213C262.391 55.3209 263.53 56.5157 264.578 57.3259C264.583 57.3647 264.588 57.408 264.593 57.4562C264.598 57.506 264.604 57.5696 264.61 57.6455C264.681 58.4856 264.878 60.8309 266.699 62.6831C269.335 65.3631 271.741 68.8497 274.418 72.7269C275.02 73.5997 275.636 74.4923 276.272 75.4C279.547 80.0789 283.356 85.1729 288.123 88.4049C288.116 88.4 288.12 88.4043 288.135 88.4202C288.208 88.4953 288.53 88.8286 289.057 89.6694C289.632 90.5852 290.246 91.7642 290.873 93.0891C291.496 94.403 292.09 95.77 292.646 97.0531L292.743 97.2777C293.245 98.4363 293.742 99.5861 294.161 100.438C294.8 101.737 295.055 103.85 294.99 106.796C294.96 108.14 294.871 109.504 294.78 110.904L294.768 111.093C294.675 112.511 294.58 114.011 294.58 115.371V147.588C294.58 148.39 294.581 149.195 294.582 150.002C294.593 159.427 294.605 169.146 293.067 177.751C292.675 179.939 291.428 182.67 289.738 185.994C289.498 186.466 289.249 186.951 288.994 187.446C287.592 190.171 286.033 193.2 285.09 195.972C283.083 201.867 282.138 206.989 281.123 212.666C279.246 223.165 272.7 232.462 265.206 240.082C261.44 243.913 256.865 247.091 251.905 250.537C250.98 251.18 250.041 251.832 249.091 252.5C243.237 256.616 237.076 261.261 232.614 267.563C229.493 271.97 224.919 275.203 220.833 275.322C219.33 275.366 217.476 275.849 215.818 276.378C214.043 276.944 212.067 277.705 210.162 278.543C208.262 279.378 206.36 280.323 204.751 281.274C203.301 282.131 201.577 283.282 200.533 284.633C199.107 286.478 196.805 287.935 193.562 288.989C190.324 290.043 186.431 290.602 182.207 290.845C178.002 291.087 173.635 291.008 169.484 290.862C168.29 290.82 167.099 290.771 165.933 290.723C163.134 290.609 160.474 290.501 158.247 290.501H137.347C134.662 290.501 132.005 289.874 128.859 289.099L128.574 289.028C125.655 288.308 122.236 287.465 118.686 287.465C115.687 287.465 112.825 285.718 108.899 282.81C108.569 282.566 108.229 282.311 107.88 282.048C104.552 279.552 100.314 276.372 95.4434 275.471C90.1742 274.497 85.3358 272.796 80.4323 270.81C78.7576 270.132 77.028 269.399 75.2614 268.651C72.0083 267.273 68.6298 265.842 65.238 264.6C57.0686 261.61 48.9683 255.017 44.9797 247.716C43.653 245.288 41.7051 243.172 40.1222 241.452L40.0198 241.341C38.2796 239.45 36.9052 237.939 35.9744 236.33C35.8155 236.055 35.6407 235.743 35.4518 235.405C34.822 234.278 34.0359 232.872 33.1616 231.663C31.9667 230.012 30.3497 228.319 27.9866 227.197C27.9318 227.13 27.8349 227.001 27.7023 226.779C27.3504 226.191 26.9816 225.357 26.5481 224.24C26.4131 223.892 26.2589 223.481 26.0959 223.046C25.8092 222.282 25.495 221.444 25.2083 220.746C24.7446 219.616 24.1178 218.233 23.2483 217.096C22.7547 216.451 22.1773 215.737 21.6086 215.034L21.52 214.925C20.9078 214.168 20.2899 213.403 19.6958 212.63C18.4577 211.021 17.5433 209.658 17.1013 208.647C16.2641 206.732 15.2919 204.771 14.3445 202.866L14.2476 202.671C13.3189 200.804 12.4105 198.978 11.5825 197.139C9.8516 193.294 8.65114 189.767 8.47274 186.501C8.23826 182.21 7.14991 178.218 6.17682 174.649C6.09363 174.344 6.01129 174.042 5.9304 173.743C4.86891 169.822 4 166.28 4 162.431C4 159.073 4.90998 156.145 6.04717 152.61L6.11633 152.395C7.2006 149.027 8.4787 145.056 8.4787 140.419C8.4787 137.605 8.2898 134.441 8.10508 131.347C8.0061 129.69 7.90832 128.052 7.84145 126.499C7.63955 121.811 7.68627 117.532 8.46941 113.948C9.03738 111.349 9.3898 109.917 9.9119 108.722C10.3765 107.658 11.0434 106.642 12.4729 105.188C13.6853 103.955 14.309 102.492 14.6788 101.3C15.0276 100.175 15.2385 98.9773 15.4017 98.0511L15.4234 97.9277C15.8303 95.6218 16.0934 94.7951 16.4476 94.3899C19.7737 90.5852 21.9148 85.8353 21.9148 80.4564C21.9148 79.3282 22.5224 78.187 24.1024 75.8673C24.1786 75.7554 24.2582 75.6394 24.3405 75.5194C25.6565 73.6015 27.6817 70.65 27.8804 67.0122C27.8803 67.015 27.8802 67.0161 27.8803 67.0154C27.8809 67.0111 27.8878 66.9388 27.9232 66.7856C27.9627 66.6141 28.0273 66.3854 28.1261 66.0964C28.3253 65.5136 28.6273 64.7897 29.0321 63.9476C29.8413 62.2644 30.9697 60.2982 32.2363 58.3498C33.5018 56.4031 34.8565 54.5491 36.0938 53.0787C37.4291 51.4918 38.3287 50.7154 38.6686 50.5179C41.8346 48.6783 43.1506 46.0464 43.9075 43.8238C44.1197 43.2005 44.3442 42.419 44.5247 41.7903C44.6093 41.4957 44.6843 41.2347 44.7439 41.0392C44.9848 40.2485 45.1989 39.6903 45.4542 39.2361C47.1265 36.2601 49.3176 34.9812 53.1003 33.2328C55.1955 32.2644 56.3396 30.7964 57.0371 29.8707C57.6611 29.0427 57.8686 28.772 58.1014 28.5885C58.127 28.5845 58.1579 28.5801 58.1946 28.5756C58.4776 28.5416 58.761 28.5358 59.2526 28.5257C59.3809 28.523 59.5234 28.5201 59.6837 28.5163C60.3029 28.5016 61.3165 28.4722 62.3336 28.2166C63.4323 27.9404 64.7943 27.3391 65.8455 26.003L62.7018 23.5297L65.8455 26.003C66.2037 25.5477 67.0403 24.9551 68.7359 24.0441C68.9551 23.9263 69.1982 23.7989 69.4583 23.6625C70.7827 22.9682 72.5476 22.0429 73.8516 20.9822C75.5149 19.6291 77.9987 18.4366 81.0772 16.9585C81.586 16.7142 82.1111 16.4621 82.6515 16.2002C84.4258 15.34 86.3105 14.3892 88.0109 13.3212C89.691 12.266 91.4139 10.9617 92.7177 9.3045C93.4357 8.39181 94.7588 7.50449 96.9353 6.76791C99.0835 6.0409 101.714 5.57717 104.625 5.26728C107.323 4.98012 110.092 4.84033 112.781 4.70456C112.984 4.69431 113.187 4.68408 113.389 4.67382C116.016 4.54036 118.677 4.39673 120.851 4.06753Z" fill="#AD7D49" stroke="black" stroke-width="8" stroke-linecap="round" stroke-linejoin="round"/>
<path d="M264 104.454C264 96.3692 271.843 95.0507 274.885 94.2282C275.829 99.0558 277.459 99.1374 277.982 105.5C278.877 116.366 280.78 116.999 274.885 116.999C271.511 116.999 269.335 117.135 266.323 113.282C264.777 111.305 264 109.239 264 104.454Z" fill="#FF0D0D"/>
<path d="M275.616 94C273.418 94.8602 264 95.5947 264 104.454C264 109.239 264.777 111.305 266.323 113.282C269.335 117.135 271.511 116.999 274.885 116.999C280.78 116.999 278.877 116.366 277.982 105.5C277.45 99.0386 275.778 99.0548 274.842 94" stroke="black" stroke-width="4" stroke-linecap="round" stroke-linejoin="round"/>
<path d="M246.178 163.518C246.96 164.415 247.825 165.203 248.656 165.917C249.052 166.257 249.428 166.572 249.791 166.875C250.467 167.439 251.096 167.965 251.717 168.545C253.525 170.236 254.641 171.851 254.641 174.202C254.641 177.857 252.868 180.014 250.39 181.222C247.78 182.494 244.334 182.707 241.378 182.05C239.265 181.58 237.104 181.456 235.129 181.343C234.788 181.323 234.453 181.304 234.124 181.283C231.815 181.138 229.735 180.924 227.752 180.21C227.691 180.188 227.534 180.127 227.356 179.675C227.164 179.187 227.044 178.463 227.01 177.517C226.977 176.593 227.029 175.599 227.097 174.624C227.109 174.44 227.123 174.252 227.137 174.064C227.191 173.315 227.247 172.552 227.247 171.96C227.247 169.795 227.948 168.331 229.011 167.255C230.128 166.125 231.778 165.292 233.854 164.709C237.692 163.63 242.326 163.569 246.102 163.519C246.127 163.519 246.152 163.519 246.178 163.518Z" fill="#E8FA1D" stroke="black" stroke-width="4" stroke-linecap="round" stroke-linejoin="round"/>
<path d="M89.1777 67.5183C89.9603 68.4148 90.8251 69.2027 91.6562 69.9169C92.052 70.2572 92.4284 70.5715 92.7913 70.8746C93.4673 71.4392 94.0964 71.9646 94.7171 72.5452C96.525 74.2362 97.6409 75.8511 97.6409 78.202C97.6409 81.8569 95.8683 84.0142 93.3901 85.222C90.7799 86.4941 87.3339 86.7068 84.3778 86.0499C82.2646 85.5803 80.1038 85.4562 78.1292 85.3428C77.7883 85.3232 77.4529 85.304 77.1243 85.2833C74.8153 85.1381 72.7345 84.9241 70.7516 84.2103C70.6911 84.1885 70.5342 84.1266 70.3562 83.6754C70.1636 83.1872 70.0438 82.4627 70.0101 81.517C69.9772 80.5932 70.0293 79.5993 70.0968 78.6237C70.1095 78.4398 70.1232 78.2522 70.1369 78.0636C70.1914 77.315 70.247 76.5525 70.247 75.9596C70.247 73.7946 70.9478 72.3311 72.0109 71.2552C73.1276 70.1251 74.7783 69.2917 76.8537 68.7087C80.692 67.6305 85.326 67.5692 89.1019 67.5193C89.1272 67.519 89.1524 67.5186 89.1777 67.5183Z" fill="#E8FA1D" stroke="black" stroke-width="4" stroke-linecap="round" stroke-linejoin="round"/>
<path d="M152.178 43.5183C152.96 44.4148 153.825 45.2027 154.656 45.9169C155.052 46.2572 155.428 46.5715 155.791 46.8746C156.467 47.4392 157.096 47.9646 157.717 48.5452C159.525 50.2362 160.641 51.8511 160.641 54.202C160.641 57.8569 158.868 60.0142 156.39 61.222C153.78 62.4941 150.334 62.7068 147.378 62.0499C145.265 61.5803 143.104 61.4562 141.129 61.3428C140.788 61.3232 140.453 61.304 140.124 61.2833C137.815 61.1381 135.735 60.9241 133.752 60.2103C133.691 60.1885 133.534 60.1266 133.356 59.6754C133.164 59.1872 133.044 58.4627 133.01 57.517C132.977 56.5932 133.029 55.5993 133.097 54.6237C133.109 54.4398 133.123 54.2522 133.137 54.0636C133.191 53.315 133.247 52.5525 133.247 51.9596C133.247 49.7946 133.948 48.3311 135.011 47.2552C136.128 46.1251 137.778 45.2917 139.854 44.7087C143.692 43.6305 148.326 43.5692 152.102 43.5193C152.127 43.519 152.152 43.5186 152.178 43.5183Z" fill="#E8FA1D" stroke="black" stroke-width="4" stroke-linecap="round" stroke-linejoin="round"/>
<path d="M215.276 66.0472C217.786 66.3258 219.73 67.8398 221.078 70.2375C222.469 72.7125 223.144 76.0264 222.974 79.3952C222.805 82.7643 221.801 85.9814 220.072 88.302C218.384 90.5661 216.006 92 212.818 92C211.243 92 210.17 91.5075 209.31 90.7243C208.388 89.884 207.619 88.6212 206.888 86.9415C206.334 85.6665 205.858 84.2935 205.346 82.8172C205.178 82.3336 205.007 81.8389 204.828 81.333C204.124 79.3474 203.314 77.2396 202.202 75.3619C200.829 73.0418 200.861 71.63 201.191 70.7727C201.549 69.8406 202.486 68.9489 204.143 68.1756C207.428 66.6433 212.237 66.176 215.276 66.0472Z" fill="#15F3E6" stroke="black" stroke-width="4" stroke-linecap="round" stroke-linejoin="round"/>
<path d="M179.276 242.047C181.786 242.326 183.73 243.84 185.078 246.237C186.469 248.713 187.144 252.026 186.974 255.395C186.805 258.764 185.801 261.981 184.072 264.302C182.384 266.566 180.006 268 176.818 268C175.243 268 174.17 267.507 173.31 266.724C172.388 265.884 171.619 264.621 170.888 262.941C170.334 261.667 169.858 260.294 169.346 258.817C169.178 258.334 169.007 257.839 168.828 257.333C168.124 255.347 167.314 253.24 166.202 251.362C164.829 249.042 164.861 247.63 165.191 246.773C165.549 245.841 166.486 244.949 168.143 244.176C171.428 242.643 176.237 242.176 179.276 242.047Z" fill="#15F3E6" stroke="black" stroke-width="4" stroke-linecap="round" stroke-linejoin="round"/>
<path d="M62 151.454C62 151.46 62.0002 151.459 62.0018 151.452C62.0119 151.409 62.0792 151.127 62.5214 150.561C62.9964 149.953 63.7363 149.232 64.7293 148.42C66.7084 146.801 69.4313 145.031 72.3231 143.31C75.2012 141.596 78.1763 139.972 80.636 138.636C80.8272 138.532 81.0164 138.43 81.2033 138.328C81.6852 138.067 82.1511 137.814 82.5925 137.573C82.5678 138.181 82.5526 138.816 82.5593 139.444C82.5711 140.547 82.6501 141.754 82.9189 142.786C83.1522 143.683 83.7195 145.19 85.2734 145.726C86.3219 146.088 87.2443 146.456 87.9285 147C88.5248 147.474 88.9272 148.067 88.9755 149.058C89.1036 151.687 88.7163 153.452 88.1318 154.603C87.5719 155.705 86.7883 156.335 85.8499 156.675C83.81 157.414 80.6925 156.874 77.4255 155.212C75.8691 154.421 73.8121 154.408 72.1242 154.468C71.376 154.495 70.667 154.538 69.9767 154.58C68.8746 154.647 67.8201 154.711 66.7298 154.7C64.9892 154.684 63.789 154.454 63.0573 153.998C62.5247 153.666 62 153.075 62 151.454Z" fill="#32FF11" stroke="black" stroke-width="4" stroke-linecap="round" stroke-linejoin="round"/>
<path d="M208 235.454C208 235.46 208 235.459 208.002 235.452C208.012 235.409 208.079 235.127 208.521 234.561C208.996 233.953 209.736 233.232 210.729 232.42C212.708 230.801 215.431 229.031 218.323 227.31C221.201 225.596 224.176 223.972 226.636 222.636C226.827 222.532 227.016 222.43 227.203 222.328C227.685 222.067 228.151 221.814 228.593 221.573C228.568 222.181 228.553 222.816 228.559 223.444C228.571 224.547 228.65 225.754 228.919 226.786C229.152 227.683 229.72 229.19 231.273 229.726C232.322 230.088 233.244 230.456 233.929 231C234.525 231.474 234.927 232.067 234.976 233.058C235.104 235.687 234.716 237.452 234.132 238.603C233.572 239.705 232.788 240.335 231.85 240.675C229.81 241.414 226.692 240.874 223.425 239.212C221.869 238.421 219.812 238.408 218.124 238.468C217.376 238.495 216.667 238.538 215.977 238.58C214.875 238.647 213.82 238.711 212.73 238.7C210.989 238.684 209.789 238.454 209.057 237.998C208.525 237.666 208 237.075 208 235.454Z" fill="#32FF11" stroke="black" stroke-width="4" stroke-linecap="round" stroke-linejoin="round"/>
<path d="M78 247.454C78 247.46 78.0002 247.459 78.0018 247.452C78.0119 247.409 78.0792 247.127 78.5214 246.561C78.9964 245.953 79.7363 245.232 80.7293 244.42C82.7084 242.801 85.4313 241.031 88.3231 239.31C91.2012 237.596 94.1763 235.972 96.636 234.636C96.8272 234.532 97.0164 234.43 97.2033 234.328C97.6852 234.067 98.1511 233.814 98.5925 233.573C98.5678 234.181 98.5526 234.816 98.5593 235.444C98.5711 236.547 98.6501 237.754 98.9189 238.786C99.1522 239.683 99.7195 241.19 101.273 241.726C102.322 242.088 103.244 242.456 103.929 243C104.525 243.474 104.927 244.067 104.976 245.058C105.104 247.687 104.716 249.452 104.132 250.603C103.572 251.705 102.788 252.335 101.85 252.675C99.81 253.414 96.6925 252.874 93.4255 251.212C91.8691 250.421 89.8121 250.408 88.1242 250.468C87.376 250.495 86.667 250.538 85.9767 250.58C84.8746 250.647 83.8201 250.711 82.7298 250.7C80.9892 250.684 79.789 250.454 79.0573 249.998C78.5247 249.666 78 249.075 78 247.454Z" fill="#32FF11" stroke="black" stroke-width="4" stroke-linecap="round" stroke-linejoin="round"/>
<path d="M141.623 192.763C139.594 186.031 149.777 181.766 153.648 179.852C156.124 183.49 158.33 182.9 160.628 187.986C164.553 196.672 167.263 196.43 159.361 198.811C154.839 200.174 151.956 201.166 146.952 199.175C144.383 198.153 142.823 196.747 141.623 192.763Z" fill="#CF0DFF"/>
<path d="M154.571 179.367C151.84 180.971 139.4 185.387 141.623 192.763C142.823 196.747 144.383 198.153 146.952 199.175C151.956 201.166 154.839 200.174 159.361 198.811C167.263 196.43 164.553 196.672 160.628 187.986C158.294 182.821 156.056 183.51 153.533 179.68" stroke="black" stroke-width="4" stroke-linecap="round" stroke-linejoin="round"/>
<path d="M34.6228 118.763C32.5944 112.031 42.7768 107.766 46.6482 105.852C49.1241 109.49 51.3296 108.9 53.6277 113.986C57.5528 122.672 60.2629 122.43 52.3606 124.811C47.8386 126.174 44.9562 127.165 39.9518 125.175C37.3831 124.153 35.8233 122.747 34.6228 118.763Z" fill="#CF0DFF"/>
<path d="M47.5708 105.367C44.8398 106.971 32.4001 111.387 34.6228 118.763C35.8233 122.747 37.3831 124.153 39.9518 125.175C44.9562 127.165 47.8386 126.174 52.3606 124.811C60.2629 122.43 57.5528 122.672 53.6277 113.986C51.2939 108.821 49.0557 109.51 46.5327 105.68" stroke="black" stroke-width="4" stroke-linecap="round" stroke-linejoin="round"/>
<path d="M133.623 101.763C131.594 95.0314 141.777 90.7657 145.648 88.8522C148.124 92.4904 150.33 91.8999 152.628 96.9856C156.553 105.672 159.263 105.43 151.361 107.811C146.839 109.174 143.956 110.165 138.952 108.175C136.383 107.153 134.823 105.747 133.623 101.763Z" fill="#CF0DFF"/>
<path d="M146.571 88.3669C143.84 89.971 131.4 94.3866 133.623 101.763C134.823 105.747 136.383 107.153 138.952 108.175C143.956 110.165 146.839 109.174 151.361 107.811C159.263 105.43 156.553 105.672 152.628 96.9856C150.294 91.821 148.056 92.5101 145.533 88.6797" stroke="black" stroke-width="4" stroke-linecap="round" stroke-linejoin="round"/>
<path d="M126.623 269.763C124.594 263.031 134.777 258.766 138.648 256.852C141.124 260.49 143.33 259.9 145.628 264.986C149.553 273.672 152.263 273.43 144.361 275.811C139.839 277.174 136.956 278.165 131.952 276.175C129.383 275.153 127.823 273.747 126.623 269.763Z" fill="#CF0DFF"/>
<path d="M139.571 256.367C136.84 257.971 124.4 262.387 126.623 269.763C127.823 273.747 129.383 275.153 131.952 276.175C136.956 278.165 139.839 277.174 144.361 275.811C152.263 273.43 149.553 273.672 145.628 264.986C143.294 259.821 141.056 260.51 138.533 256.68" stroke="black" stroke-width="4" stroke-linecap="round" stroke-linejoin="round"/>
<path d="M45 194.454C45 186.369 52.843 185.051 55.885 184.228C56.8285 189.056 58.4585 189.137 58.9822 195.5C59.8765 206.366 61.7798 206.999 55.8846 206.999C52.5112 206.999 50.3355 207.135 47.3232 203.282C45.777 201.305 45 199.239 45 194.454Z" fill="#FF0D0D"/>
<path d="M56.616 184C54.4177 184.86 45 185.595 45 194.454C45 199.239 45.777 201.305 47.3232 203.282C50.3355 207.135 52.5112 206.999 55.8846 206.999C61.7798 206.999 59.8765 206.366 58.9822 195.5C58.4504 189.039 56.7777 189.055 55.8416 184" stroke="black" stroke-width="4" stroke-linecap="round" stroke-linejoin="round"/>
<path d="M181 133.454C181 125.369 188.843 124.051 191.885 123.228C192.829 128.056 194.459 128.137 194.982 134.5C195.877 145.366 197.78 145.999 191.885 145.999C188.511 145.999 186.335 146.135 183.323 142.282C181.777 140.305 181 138.239 181 133.454Z" fill="#FF0D0D"/>
<path d="M192.616 123C190.418 123.86 181 124.595 181 133.454C181 138.239 181.777 140.305 183.323 142.282C186.335 146.135 188.511 145.999 191.885 145.999C197.78 145.999 195.877 145.366 194.982 134.5C194.45 128.039 192.778 128.055 191.842 123" stroke="black" stroke-width="4" stroke-linecap="round" stroke-linejoin="round"/>
<path d="M119 146.454C119 138.369 126.843 137.051 129.885 136.228C130.829 141.056 132.459 141.137 132.982 147.5C133.877 158.366 135.78 158.999 129.885 158.999C126.511 158.999 124.335 159.135 121.323 155.282C119.777 153.305 119 151.239 119 146.454Z" fill="#FF0D0D"/>
<path d="M130.616 136C128.418 136.86 119 137.595 119 146.454C119 151.239 119.777 153.305 121.323 155.282C124.335 159.135 126.511 158.999 129.885 158.999C135.78 158.999 133.877 158.366 132.982 147.5C132.45 141.039 130.778 141.055 129.842 136" stroke="black" stroke-width="4" stroke-linecap="round" stroke-linejoin="round"/>
</svg>
