<svg width="659" height="599" viewBox="0 0 659 599" fill="none" xmlns="http://www.w3.org/2000/svg">
<g filter="url(#filter0_d)">
<path d="M329.5 0L614.855 449.25H44.1446L329.5 0Z" fill="#DA0E0E" fill-opacity="0.87"/>
<path d="M53.2439 444.25L329.5 9.32546L605.756 444.25H53.2439Z" stroke="black" stroke-width="10"/>
</g>
<g filter="url(#filter1_i)">
<path d="M330 78L523.124 411H136.876L330 78Z" fill="#EDF11C"/>
</g>
<path d="M145.556 406L330 87.9664L514.444 406H145.556Z" stroke="black" stroke-width="10"/>
<path d="M295.192 223.16H305.92C306.832 223.16 307.48 223.376 307.864 223.808C308.296 224.192 308.512 224.84 308.512 225.752V253.688C308.512 255.224 308.44 256.664 308.296 258.008C308.2 259.304 307.84 260.84 307.216 262.616L303.616 272.408C303.376 273.128 303.016 273.752 302.536 274.28C302.104 274.76 301.504 275 300.736 275H291.16C290.392 275 289.696 274.832 289.072 274.496C288.448 274.16 288.04 273.608 287.848 272.84L284.536 261.104C284.392 260.624 284.2 260.312 283.96 260.168C283.768 259.976 283.528 259.88 283.24 259.88H282.592C282.304 259.88 282.04 259.976 281.8 260.168C281.608 260.312 281.44 260.624 281.296 261.104L277.912 272.84C277.72 273.56 277.36 274.112 276.832 274.496C276.304 274.832 275.656 275 274.888 275H265.384C264.616 275 263.944 274.76 263.368 274.28C262.84 273.8 262.456 273.176 262.216 272.408L258.616 262.472C257.992 260.696 257.608 259.16 257.464 257.864C257.368 256.52 257.32 255.08 257.32 253.544V225.752C257.32 224.84 257.512 224.192 257.896 223.808C258.328 223.376 259 223.16 259.912 223.16H271C271.912 223.16 272.56 223.376 272.944 223.808C273.376 224.192 273.592 224.84 273.592 225.752V252.248L277.768 243.176C278.152 242.36 278.656 241.784 279.28 241.448C279.904 241.112 280.672 240.944 281.584 240.944H284.608C285.52 240.944 286.288 241.112 286.912 241.448C287.536 241.784 288.04 242.36 288.424 243.176L292.6 252.248V225.752C292.6 224.84 292.792 224.192 293.176 223.808C293.608 223.376 294.28 223.16 295.192 223.16ZM319.244 275C318.332 275 317.66 274.808 317.228 274.424C316.844 273.992 316.652 273.32 316.652 272.408V263.84C316.652 262.928 316.844 262.28 317.228 261.896C317.66 261.464 318.332 261.248 319.244 261.248H326.372V237.056H319.244C318.332 237.056 317.66 236.864 317.228 236.48C316.844 236.048 316.652 235.376 316.652 234.464V225.752C316.652 224.84 316.844 224.192 317.228 223.808C317.66 223.376 318.332 223.16 319.244 223.16H349.916C350.828 223.16 351.476 223.376 351.86 223.808C352.292 224.192 352.508 224.84 352.508 225.752V234.464C352.508 235.376 352.292 236.048 351.86 236.48C351.476 236.864 350.828 237.056 349.916 237.056H342.932V261.248H349.916C350.828 261.248 351.476 261.464 351.86 261.896C352.292 262.28 352.508 262.928 352.508 263.84V272.408C352.508 273.32 352.292 273.992 351.86 274.424C351.476 274.808 350.828 275 349.916 275H319.244ZM375.15 275H363.99C363.078 275 362.406 274.808 361.974 274.424C361.59 273.992 361.398 273.32 361.398 272.408V225.752C361.398 224.84 361.59 224.192 361.974 223.808C362.406 223.376 363.078 223.16 363.99 223.16H386.022C392.55 223.16 397.014 224.456 399.414 227.048C401.814 229.64 403.014 233.024 403.014 237.2V246.416C403.014 250.592 401.814 253.976 399.414 256.568C397.014 259.16 392.55 260.456 386.022 260.456H377.742V272.408C377.742 273.32 377.526 273.992 377.094 274.424C376.71 274.808 376.062 275 375.15 275ZM377.598 236.624V247.496H384.078C385.47 247.496 386.382 247.136 386.814 246.416C387.246 245.696 387.462 244.88 387.462 243.968V240.152C387.462 239.24 387.246 238.424 386.814 237.704C386.382 236.984 385.47 236.624 384.078 236.624H377.598Z" fill="black"/>
<path d="M307.864 223.808L307.117 224.472L307.156 224.516L307.2 224.555L307.864 223.808ZM308.296 258.008L307.302 257.901L307.3 257.918L307.299 257.934L308.296 258.008ZM307.216 262.616L308.155 262.961L308.157 262.954L308.159 262.947L307.216 262.616ZM303.616 272.408L302.677 272.063L302.672 272.077L302.667 272.092L303.616 272.408ZM302.536 274.28L301.796 273.607L301.793 273.611L302.536 274.28ZM289.072 274.496L289.546 273.616L289.546 273.616L289.072 274.496ZM287.848 272.84L288.818 272.597L288.814 272.583L288.81 272.568L287.848 272.84ZM284.536 261.104L285.498 260.832L285.496 260.825L285.494 260.817L284.536 261.104ZM283.96 260.168L283.253 260.875L283.34 260.962L283.446 261.025L283.96 260.168ZM281.8 260.168L282.4 260.968L282.412 260.959L282.425 260.949L281.8 260.168ZM281.296 261.104L280.338 260.817L280.335 260.827L281.296 261.104ZM277.912 272.84L276.951 272.563L276.948 272.573L276.946 272.582L277.912 272.84ZM276.832 274.496L277.369 275.34L277.395 275.323L277.42 275.305L276.832 274.496ZM263.368 274.28L262.695 275.02L262.711 275.034L262.728 275.048L263.368 274.28ZM262.216 272.408L263.17 272.11L263.164 272.088L263.156 272.067L262.216 272.408ZM258.616 262.472L257.672 262.804L257.676 262.813L258.616 262.472ZM257.464 257.864L256.467 257.935L256.468 257.955L256.47 257.974L257.464 257.864ZM257.896 223.808L257.189 223.101L257.189 223.101L257.896 223.808ZM272.944 223.808L272.197 224.472L272.236 224.516L272.28 224.555L272.944 223.808ZM273.592 252.248H272.592L274.5 252.666L273.592 252.248ZM277.768 243.176L276.863 242.75L276.86 242.758L277.768 243.176ZM279.28 241.448L278.806 240.568L278.806 240.568L279.28 241.448ZM286.912 241.448L286.438 242.328L286.438 242.328L286.912 241.448ZM288.424 243.176L289.332 242.758L289.329 242.75L288.424 243.176ZM292.6 252.248L291.692 252.666L293.6 252.248H292.6ZM295.192 224.16H305.92V222.16H295.192V224.16ZM305.92 224.16C306.709 224.16 307.009 224.351 307.117 224.472L308.611 223.144C307.951 222.401 306.955 222.16 305.92 222.16V224.16ZM307.2 224.555C307.321 224.663 307.512 224.963 307.512 225.752H309.512C309.512 224.717 309.271 223.721 308.528 223.061L307.2 224.555ZM307.512 225.752V253.688H309.512V225.752H307.512ZM307.512 253.688C307.512 255.193 307.441 256.597 307.302 257.901L309.29 258.115C309.439 256.731 309.512 255.255 309.512 253.688H307.512ZM307.299 257.934C307.211 259.113 306.879 260.558 306.273 262.285L308.159 262.947C308.801 261.122 309.189 259.495 309.293 258.082L307.299 257.934ZM306.277 262.271L302.677 272.063L304.555 272.753L308.155 262.961L306.277 262.271ZM302.667 272.092C302.468 272.688 302.177 273.189 301.796 273.607L303.276 274.953C303.855 274.315 304.284 273.568 304.565 272.724L302.667 272.092ZM301.793 273.611C301.586 273.84 301.279 274 300.736 274V276C301.729 276 302.622 275.68 303.279 274.949L301.793 273.611ZM300.736 274H291.16V276H300.736V274ZM291.16 274C290.543 274 290.012 273.867 289.546 273.616L288.598 275.376C289.38 275.797 290.241 276 291.16 276V274ZM289.546 273.616C289.2 273.429 288.951 273.128 288.818 272.597L286.878 273.083C287.129 274.088 287.696 274.891 288.598 275.376L289.546 273.616ZM288.81 272.568L285.498 260.832L283.574 261.376L286.886 273.112L288.81 272.568ZM285.494 260.817C285.329 260.268 285.043 259.652 284.474 259.311L283.446 261.025C283.392 260.993 283.395 260.974 283.432 261.034C283.47 261.095 283.523 261.206 283.578 261.391L285.494 260.817ZM284.667 259.461C284.275 259.069 283.775 258.88 283.24 258.88V260.88C283.256 260.88 283.265 260.881 283.268 260.882C283.271 260.882 283.269 260.882 283.265 260.88C283.26 260.879 283.256 260.876 283.252 260.874C283.249 260.872 283.249 260.872 283.253 260.875L284.667 259.461ZM283.24 258.88H282.592V260.88H283.24V258.88ZM282.592 258.88C282.061 258.88 281.58 259.064 281.175 259.387L282.425 260.949C282.5 260.888 282.547 260.88 282.592 260.88V258.88ZM281.2 259.368C280.73 259.72 280.489 260.314 280.338 260.817L282.254 261.391C282.314 261.192 282.369 261.062 282.41 260.984C282.456 260.9 282.462 260.922 282.4 260.968L281.2 259.368ZM280.335 260.827L276.951 272.563L278.873 273.117L282.257 261.381L280.335 260.827ZM276.946 272.582C276.804 273.114 276.56 273.457 276.244 273.687L277.42 275.305C278.16 274.767 278.636 274.006 278.878 273.098L276.946 272.582ZM276.295 273.652C275.961 273.865 275.509 274 274.888 274V276C275.803 276 276.647 275.799 277.369 275.34L276.295 273.652ZM274.888 274H265.384V276H274.888V274ZM265.384 274C264.844 274 264.4 273.838 264.008 273.512L262.728 275.048C263.488 275.682 264.388 276 265.384 276V274ZM264.041 273.54C263.66 273.194 263.364 272.73 263.17 272.11L261.262 272.706C261.548 273.622 262.02 274.406 262.695 275.02L264.041 273.54ZM263.156 272.067L259.556 262.131L257.676 262.813L261.276 272.749L263.156 272.067ZM259.559 262.141C258.951 260.407 258.591 258.949 258.458 257.754L256.47 257.974C256.625 259.371 257.033 260.985 257.673 262.803L259.559 262.141ZM258.461 257.793C258.367 256.475 258.32 255.059 258.32 253.544H256.32C256.32 255.101 256.369 256.565 256.467 257.935L258.461 257.793ZM258.32 253.544V225.752H256.32V253.544H258.32ZM258.32 225.752C258.32 224.935 258.5 224.618 258.603 224.515L257.189 223.101C256.524 223.766 256.32 224.745 256.32 225.752H258.32ZM258.603 224.515C258.773 224.346 259.136 224.16 259.912 224.16V222.16C258.864 222.16 257.883 222.406 257.189 223.101L258.603 224.515ZM259.912 224.16H271V222.16H259.912V224.16ZM271 224.16C271.789 224.16 272.089 224.351 272.197 224.472L273.691 223.144C273.031 222.401 272.035 222.16 271 222.16V224.16ZM272.28 224.555C272.401 224.663 272.592 224.963 272.592 225.752H274.592C274.592 224.717 274.351 223.721 273.608 223.061L272.28 224.555ZM272.592 225.752V252.248H274.592V225.752H272.592ZM274.5 252.666L278.676 243.594L276.86 242.758L272.684 251.83L274.5 252.666ZM278.673 243.602C278.991 242.926 279.365 242.538 279.754 242.328L278.806 240.568C277.947 241.03 277.313 241.794 276.863 242.75L278.673 243.602ZM279.754 242.328C280.197 242.09 280.791 241.944 281.584 241.944V239.944C280.553 239.944 279.611 240.134 278.806 240.568L279.754 242.328ZM281.584 241.944H284.608V239.944H281.584V241.944ZM284.608 241.944C285.401 241.944 285.995 242.09 286.438 242.328L287.386 240.568C286.581 240.134 285.639 239.944 284.608 239.944V241.944ZM286.438 242.328C286.827 242.538 287.201 242.926 287.519 243.602L289.329 242.75C288.879 241.794 288.245 241.03 287.386 240.568L286.438 242.328ZM287.516 243.594L291.692 252.666L293.508 251.83L289.332 242.758L287.516 243.594ZM293.6 252.248V225.752H291.6V252.248H293.6ZM293.6 225.752C293.6 224.935 293.78 224.618 293.883 224.515L292.469 223.101C291.804 223.766 291.6 224.745 291.6 225.752H293.6ZM293.883 224.515C294.053 224.346 294.416 224.16 295.192 224.16V222.16C294.144 222.16 293.163 222.406 292.469 223.101L293.883 224.515ZM317.228 274.424L316.481 275.088L316.52 275.132L316.564 275.171L317.228 274.424ZM317.228 261.896L317.935 262.603L317.935 262.603L317.228 261.896ZM326.372 261.248V262.248H327.372V261.248H326.372ZM326.372 237.056H327.372V236.056H326.372V237.056ZM317.228 236.48L316.481 237.144L316.52 237.188L316.564 237.227L317.228 236.48ZM317.228 223.808L316.521 223.101L316.521 223.101L317.228 223.808ZM351.86 223.808L351.113 224.472L351.152 224.516L351.196 224.555L351.86 223.808ZM351.86 236.48L352.567 237.187L352.567 237.187L351.86 236.48ZM342.932 237.056V236.056H341.932V237.056H342.932ZM342.932 261.248H341.932V262.248H342.932V261.248ZM351.86 261.896L351.113 262.56L351.152 262.604L351.196 262.643L351.86 261.896ZM351.86 274.424L352.567 275.131L352.567 275.131L351.86 274.424ZM319.244 274C318.442 274 318.061 273.826 317.892 273.677L316.564 275.171C317.259 275.79 318.222 276 319.244 276V274ZM317.975 273.76C317.826 273.591 317.652 273.21 317.652 272.408H315.652C315.652 273.43 315.862 274.393 316.481 275.088L317.975 273.76ZM317.652 272.408V263.84H315.652V272.408H317.652ZM317.652 263.84C317.652 263.023 317.832 262.706 317.935 262.603L316.521 261.189C315.856 261.854 315.652 262.833 315.652 263.84H317.652ZM317.935 262.603C318.104 262.434 318.468 262.248 319.244 262.248V260.248C318.196 260.248 317.215 260.494 316.521 261.189L317.935 262.603ZM319.244 262.248H326.372V260.248H319.244V262.248ZM327.372 261.248V237.056H325.372V261.248H327.372ZM326.372 236.056H319.244V238.056H326.372V236.056ZM319.244 236.056C318.442 236.056 318.061 235.882 317.892 235.733L316.564 237.227C317.259 237.846 318.222 238.056 319.244 238.056V236.056ZM317.975 235.816C317.826 235.647 317.652 235.266 317.652 234.464H315.652C315.652 235.486 315.862 236.449 316.481 237.144L317.975 235.816ZM317.652 234.464V225.752H315.652V234.464H317.652ZM317.652 225.752C317.652 224.935 317.832 224.618 317.935 224.515L316.521 223.101C315.856 223.766 315.652 224.745 315.652 225.752H317.652ZM317.935 224.515C318.104 224.346 318.468 224.16 319.244 224.16V222.16C318.196 222.16 317.215 222.406 316.521 223.101L317.935 224.515ZM319.244 224.16H349.916V222.16H319.244V224.16ZM349.916 224.16C350.705 224.16 351.005 224.351 351.113 224.472L352.607 223.144C351.947 222.401 350.951 222.16 349.916 222.16V224.16ZM351.196 224.555C351.317 224.663 351.508 224.963 351.508 225.752H353.508C353.508 224.717 353.267 223.721 352.524 223.061L351.196 224.555ZM351.508 225.752V234.464H353.508V225.752H351.508ZM351.508 234.464C351.508 235.24 351.322 235.603 351.153 235.773L352.567 237.187C353.262 236.493 353.508 235.512 353.508 234.464H351.508ZM351.153 235.773C351.049 235.876 350.733 236.056 349.916 236.056V238.056C350.923 238.056 351.902 237.852 352.567 237.187L351.153 235.773ZM349.916 236.056H342.932V238.056H349.916V236.056ZM341.932 237.056V261.248H343.932V237.056H341.932ZM342.932 262.248H349.916V260.248H342.932V262.248ZM349.916 262.248C350.705 262.248 351.005 262.439 351.113 262.56L352.607 261.232C351.947 260.489 350.951 260.248 349.916 260.248V262.248ZM351.196 262.643C351.317 262.751 351.508 263.051 351.508 263.84H353.508C353.508 262.805 353.267 261.809 352.524 261.149L351.196 262.643ZM351.508 263.84V272.408H353.508V263.84H351.508ZM351.508 272.408C351.508 273.184 351.322 273.547 351.153 273.717L352.567 275.131C353.262 274.437 353.508 273.456 353.508 272.408H351.508ZM351.153 273.717C351.049 273.82 350.733 274 349.916 274V276C350.923 276 351.902 275.796 352.567 275.131L351.153 273.717ZM349.916 274H319.244V276H349.916V274ZM361.974 274.424L361.226 275.088L361.265 275.132L361.309 275.171L361.974 274.424ZM361.974 223.808L361.267 223.101L361.267 223.101L361.974 223.808ZM399.414 227.048L398.68 227.727L398.68 227.727L399.414 227.048ZM399.414 256.568L398.68 255.889L398.68 255.889L399.414 256.568ZM377.742 260.456V259.456H376.742V260.456H377.742ZM377.094 274.424L376.387 273.717L376.387 273.717L377.094 274.424ZM377.598 236.624V235.624H376.598V236.624H377.598ZM377.598 247.496H376.598V248.496H377.598V247.496ZM386.814 246.416L387.671 246.93L387.671 246.93L386.814 246.416ZM386.814 237.704L385.956 238.218L385.956 238.218L386.814 237.704ZM375.15 274H363.99V276H375.15V274ZM363.99 274C363.188 274 362.807 273.826 362.638 273.677L361.309 275.171C362.005 275.79 362.967 276 363.99 276V274ZM362.721 273.76C362.571 273.591 362.398 273.21 362.398 272.408H360.398C360.398 273.43 360.608 274.393 361.226 275.088L362.721 273.76ZM362.398 272.408V225.752H360.398V272.408H362.398ZM362.398 225.752C362.398 224.935 362.577 224.618 362.681 224.515L361.267 223.101C360.602 223.766 360.398 224.745 360.398 225.752H362.398ZM362.681 224.515C362.85 224.346 363.214 224.16 363.99 224.16V222.16C362.942 222.16 361.961 222.406 361.267 223.101L362.681 224.515ZM363.99 224.16H386.022V222.16H363.99V224.16ZM386.022 224.16C392.487 224.16 396.578 225.457 398.68 227.727L400.147 226.369C397.45 223.455 392.613 222.16 386.022 222.16V224.16ZM398.68 227.727C400.878 230.102 402.014 233.227 402.014 237.2H404.014C404.014 232.821 402.749 229.178 400.147 226.369L398.68 227.727ZM402.014 237.2V246.416H404.014V237.2H402.014ZM402.014 246.416C402.014 250.389 400.878 253.514 398.68 255.889L400.147 257.247C402.749 254.438 404.014 250.795 404.014 246.416H402.014ZM398.68 255.889C396.578 258.159 392.487 259.456 386.022 259.456V261.456C392.613 261.456 397.45 260.161 400.147 257.247L398.68 255.889ZM386.022 259.456H377.742V261.456H386.022V259.456ZM376.742 260.456V272.408H378.742V260.456H376.742ZM376.742 272.408C376.742 273.184 376.556 273.547 376.387 273.717L377.801 275.131C378.495 274.437 378.742 273.456 378.742 272.408H376.742ZM376.387 273.717C376.283 273.82 375.966 274 375.15 274V276C376.157 276 377.136 275.796 377.801 275.131L376.387 273.717ZM376.598 236.624V247.496H378.598V236.624H376.598ZM377.598 248.496H384.078V246.496H377.598V248.496ZM384.078 248.496C385.582 248.496 386.963 248.112 387.671 246.93L385.956 245.902C385.801 246.16 385.357 246.496 384.078 246.496V248.496ZM387.671 246.93C388.204 246.042 388.462 245.045 388.462 243.968H386.462C386.462 244.715 386.287 245.35 385.956 245.902L387.671 246.93ZM388.462 243.968V240.152H386.462V243.968H388.462ZM388.462 240.152C388.462 239.075 388.204 238.078 387.671 237.19L385.956 238.218C386.287 238.77 386.462 239.405 386.462 240.152H388.462ZM387.671 237.19C386.963 236.008 385.582 235.624 384.078 235.624V237.624C385.357 237.624 385.801 237.96 385.956 238.218L387.671 237.19ZM384.078 235.624H377.598V237.624H384.078V235.624Z" fill="white"/>
<path d="M288.572 326.987C288.575 326.986 288.579 326.986 288.582 326.986C288.564 326.988 288.56 326.988 288.572 326.987ZM320.13 316.032C323.581 316.087 327.203 316.21 330.857 316.335C335.87 316.506 340.941 316.679 345.703 316.679C348.113 316.679 349.246 316.897 351.379 317.751L352.861 314.049L351.379 317.751C352.414 318.166 353.467 318.369 354.316 318.497C354.858 318.579 355.498 318.652 356.036 318.713C356.28 318.741 356.504 318.767 356.686 318.79C358.157 318.973 358.55 319.164 358.597 319.187C358.601 319.189 358.603 319.19 358.601 319.189C359.777 320.166 360.886 320.671 361.944 320.999C362.349 321.124 362.76 321.227 363.062 321.302C363.101 321.312 363.137 321.321 363.172 321.33C363.453 321.4 363.689 321.462 363.923 321.533C363.992 321.58 364.091 321.656 364.27 321.797C364.287 321.81 364.306 321.825 364.326 321.841C364.51 321.986 364.826 322.237 365.151 322.455C365.503 322.692 366.145 323.091 366.989 323.308C368.491 323.695 369.513 324.418 371.247 325.824C372.507 326.846 374.371 327.637 375.715 328.158C377.218 328.741 378.766 329.239 379.78 329.555C380.093 329.652 380.526 329.893 381.375 330.519C381.485 330.6 381.61 330.694 381.747 330.798C382.45 331.327 383.478 332.102 384.543 332.667C385.304 333.07 386.286 333.643 387.079 334.255C387.475 334.56 387.735 334.808 387.881 334.978C387.885 334.983 387.889 334.987 387.893 334.992C388.129 335.74 388.504 336.326 388.724 336.646C389.024 337.084 389.362 337.49 389.677 337.833C389.997 338.182 390.388 338.569 390.808 338.929C390.836 339.054 390.871 339.189 390.913 339.331C391.151 340.125 391.609 341.007 392.451 341.765C393.63 342.828 394.702 344.202 396.043 345.922C396.358 346.326 396.688 346.749 397.038 347.192C398.642 349.222 400.692 351.69 403.325 353.347C403.352 353.382 403.385 353.427 403.426 353.484C403.638 353.783 403.896 354.217 404.194 354.773C404.486 355.319 404.769 355.896 405.051 356.472L405.109 356.591C405.352 357.089 405.629 357.656 405.872 358.093C405.871 358.093 405.872 358.093 405.872 358.095C405.883 358.125 406.026 358.528 405.996 359.726C405.982 360.268 405.941 360.826 405.893 361.472L405.889 361.533L405.889 361.536C405.844 362.153 405.788 362.913 405.788 363.624V378.039C405.788 378.384 405.788 378.728 405.789 379.07C405.793 383.35 405.798 387.459 405.071 391.06C404.962 391.602 404.538 392.504 403.654 394.045C403.547 394.232 403.43 394.432 403.308 394.642C402.607 395.847 401.704 397.399 401.153 398.832C400.062 401.673 399.553 404.14 399.04 406.683C398.241 410.639 395.375 414.396 391.697 417.71C389.944 419.289 387.816 420.6 385.309 422.145C384.834 422.438 384.345 422.739 383.842 423.052C380.896 424.887 377.503 427.125 374.998 430.26C373.678 431.911 371.855 432.95 370.48 432.985C369.49 433.011 368.375 433.281 367.518 433.523C366.558 433.795 365.504 434.155 364.496 434.547C363.493 434.938 362.466 435.389 361.575 435.855C360.858 436.231 359.67 436.893 358.856 437.827C358.507 438.228 357.752 438.742 356.269 439.169C354.818 439.587 353 439.827 350.93 439.933C348.168 440.074 345.587 439.976 343.142 439.884C341.689 439.83 340.284 439.777 338.918 439.777H328.362C327.221 439.777 326.058 439.541 324.446 439.189C324.385 439.176 324.322 439.162 324.259 439.149C322.812 438.832 320.923 438.418 318.938 438.418C318.008 438.418 316.984 437.949 314.988 436.639C314.83 436.536 314.661 436.423 314.482 436.304C312.839 435.206 310.352 433.545 307.48 433.074C304.971 432.663 302.643 431.942 300.212 431.07C299.419 430.785 298.571 430.467 297.691 430.137C296.02 429.51 294.233 428.84 292.486 428.273C288.67 427.036 285.03 424.33 283.347 421.601C282.526 420.269 281.366 419.154 280.603 418.421C280.567 418.387 280.533 418.353 280.499 418.32C279.573 417.429 279.075 416.927 278.768 416.457C278.714 416.373 278.647 416.263 278.567 416.131C277.986 415.17 276.722 413.082 274.416 411.873C274.356 411.753 274.281 411.593 274.188 411.38C274.144 411.281 274.081 411.131 274.007 410.957C273.851 410.589 273.649 410.113 273.491 409.773C273.238 409.227 272.814 408.368 272.164 407.615C271.894 407.302 271.583 406.961 271.302 406.654L271.251 406.598C270.941 406.258 270.646 405.934 270.366 405.612C269.745 404.896 269.455 404.474 269.373 404.308C268.918 403.387 268.397 402.457 267.924 401.613L267.884 401.543C267.408 400.694 266.97 399.914 266.573 399.134C265.733 397.481 265.313 396.258 265.254 395.303C265.117 393.081 264.484 391.029 264.001 389.465C263.956 389.319 263.912 389.178 263.871 389.041C263.334 387.285 263 386.007 263 384.681C263 383.662 263.3 382.73 263.891 381.104C263.911 381.047 263.932 380.99 263.953 380.931C264.489 379.46 265.262 377.338 265.262 374.832C265.262 373.498 265.156 371.914 265.059 370.474C265.011 369.759 264.966 369.08 264.937 368.486C264.837 366.427 264.88 364.808 265.187 363.563C265.484 362.362 265.609 361.971 265.742 361.701C265.813 361.557 265.946 361.316 266.536 360.784C267.512 359.905 267.996 358.87 268.259 358.119C268.493 357.451 268.629 356.763 268.707 356.366C268.713 356.339 268.718 356.313 268.723 356.289C268.792 355.942 268.834 355.749 268.867 355.624C270.667 353.707 271.971 351.205 272.044 348.262C272.112 348.154 272.284 347.885 272.674 347.378C272.698 347.347 272.723 347.314 272.749 347.28C273.076 346.857 273.581 346.2 273.997 345.481C274.437 344.718 274.901 343.684 275.032 342.417C275.088 342.277 275.191 342.053 275.357 341.746C275.704 341.106 276.214 340.313 276.811 339.5C277.406 338.689 278.032 337.933 278.583 337.353C278.999 336.914 279.254 336.703 279.344 336.629C279.393 336.588 279.394 336.588 279.344 336.613C281.511 335.498 282.476 333.819 282.995 332.467C283.129 332.121 283.312 331.555 283.4 331.285C283.423 331.213 283.44 331.163 283.447 331.142C283.529 330.903 283.569 330.827 283.573 330.82C284.023 330.112 284.573 329.73 286.485 328.947C287.892 328.371 288.717 327.487 289.162 326.97C289.167 326.97 289.172 326.97 289.177 326.97L289.187 326.969C289.5 326.963 290.162 326.949 290.857 326.794C291.581 326.633 292.665 326.251 293.576 325.273C293.596 325.259 293.627 325.239 293.67 325.213C293.846 325.105 294.095 324.975 294.476 324.794C294.57 324.749 294.691 324.693 294.825 324.63C295.115 324.494 295.468 324.329 295.753 324.188C296.203 323.964 296.796 323.652 297.36 323.245C298.009 322.778 299.033 322.341 300.624 321.662C300.881 321.552 301.151 321.437 301.438 321.314C302.341 320.926 303.368 320.469 304.318 319.94C305.237 319.429 306.338 318.714 307.227 317.713C307.227 317.713 307.227 317.713 307.229 317.711C307.253 317.691 307.539 317.439 308.455 317.164C309.377 316.888 310.575 316.694 311.999 316.559C313.317 316.435 314.675 316.374 316.042 316.313C316.142 316.309 316.241 316.304 316.341 316.3C317.595 316.243 318.964 316.18 320.13 316.032ZM274.995 342.521C274.995 342.521 274.997 342.514 275.002 342.499C274.998 342.514 274.995 342.521 274.995 342.521ZM268.912 355.477C268.912 355.477 268.911 355.478 268.91 355.481C268.911 355.478 268.912 355.477 268.912 355.477ZM274.571 412.154C274.57 412.152 274.569 412.151 274.568 412.149C274.591 412.178 274.591 412.184 274.571 412.154ZM403.246 353.253C403.246 353.253 403.248 353.255 403.252 353.26C403.248 353.255 403.246 353.253 403.246 353.253ZM390.654 337.947C390.654 337.946 390.656 337.956 390.659 337.981C390.655 337.96 390.654 337.948 390.654 337.947ZM387.96 335.08C387.96 335.08 387.957 335.075 387.95 335.064C387.958 335.075 387.961 335.08 387.96 335.08ZM363.854 321.487C363.854 321.487 363.856 321.488 363.86 321.49C363.856 321.488 363.854 321.487 363.854 321.487Z" fill="#AD7D49" stroke="black" stroke-width="8" stroke-linecap="round" stroke-linejoin="round"/>
<path d="M383.495 352.365C383.495 349.241 387.194 348.731 388.628 348.414C389.073 350.279 389.842 350.311 390.089 352.769C390.51 356.969 391.408 357.213 388.628 357.213C387.037 357.213 386.011 357.266 384.591 355.777C383.861 355.013 383.495 354.215 383.495 352.365Z" fill="#FF0D0D"/>
<path d="M388.973 348.325C387.936 348.658 383.495 348.942 383.495 352.365C383.495 354.215 383.861 355.013 384.591 355.777C386.011 357.266 387.037 357.213 388.628 357.213C391.408 357.213 390.51 356.969 390.089 352.769C389.838 350.273 389.049 350.279 388.608 348.325" stroke="black" stroke-width="4" stroke-linecap="round" stroke-linejoin="round"/>
<path d="M374.747 376.421C375.081 376.705 375.419 376.952 375.722 377.166C375.937 377.317 376.127 377.447 376.301 377.566C376.602 377.772 376.859 377.948 377.13 378.156C377.941 378.777 378.025 379.073 378.025 379.319C378.025 379.992 377.706 380.487 376.748 380.869C375.713 381.282 374.258 381.371 372.981 381.138C371.922 380.946 370.838 380.895 369.91 380.851C369.752 380.844 369.598 380.837 369.45 380.829C368.564 380.784 367.807 380.722 367.108 380.568C367.108 380.559 367.108 380.55 367.107 380.54C367.096 380.276 367.113 379.965 367.144 379.596C367.149 379.544 367.154 379.484 367.16 379.421C367.186 379.131 367.22 378.75 367.22 378.452C367.22 378.06 367.341 377.846 367.601 377.63C367.941 377.348 368.545 377.068 369.472 376.855C371.081 376.485 373.026 376.442 374.747 376.421Z" fill="#E8FA1D" stroke="black" stroke-width="4" stroke-linecap="round" stroke-linejoin="round"/>
<path d="M300.711 339.323C301.045 339.607 301.382 339.854 301.686 340.068C301.901 340.219 302.09 340.349 302.264 340.468C302.565 340.673 302.822 340.849 303.093 341.057C303.904 341.679 303.988 341.975 303.988 342.22C303.988 342.893 303.669 343.388 302.712 343.771C301.676 344.184 300.221 344.273 298.944 344.04C297.885 343.847 296.801 343.797 295.873 343.753C295.715 343.746 295.561 343.739 295.413 343.731C294.527 343.685 293.77 343.623 293.072 343.469C293.071 343.461 293.071 343.451 293.07 343.442C293.059 343.178 293.077 342.867 293.108 342.498C293.112 342.445 293.117 342.386 293.123 342.322C293.149 342.033 293.183 341.651 293.183 341.354C293.183 340.961 293.304 340.747 293.564 340.532C293.904 340.25 294.509 339.97 295.436 339.757C297.045 339.386 298.989 339.343 300.711 339.323Z" fill="#E8FA1D" stroke="black" stroke-width="4" stroke-linecap="round" stroke-linejoin="round"/>
<path d="M330.42 330.048C330.754 330.332 331.091 330.579 331.395 330.793C331.61 330.945 331.799 331.074 331.974 331.193C332.274 331.399 332.531 331.575 332.803 331.783C333.613 332.404 333.697 332.7 333.697 332.946C333.697 333.619 333.378 334.114 332.421 334.496C331.385 334.91 329.93 334.998 328.653 334.765C327.594 334.573 326.51 334.522 325.582 334.479C325.424 334.471 325.27 334.464 325.122 334.456C324.236 334.411 323.479 334.349 322.781 334.195C322.78 334.186 322.78 334.177 322.779 334.168C322.768 333.903 322.786 333.592 322.817 333.224C322.821 333.171 322.827 333.111 322.832 333.048C322.858 332.758 322.892 332.377 322.892 332.079C322.892 331.687 323.014 331.473 323.273 331.258C323.613 330.975 324.218 330.696 325.145 330.482C326.754 330.112 328.698 330.069 330.42 330.048Z" fill="#E8FA1D" stroke="black" stroke-width="4" stroke-linecap="round" stroke-linejoin="round"/>
<path d="M360.492 338.752C361.386 338.847 362.002 339.276 362.427 339.895C362.899 340.583 363.158 341.558 363.094 342.598C363.03 343.633 362.656 344.58 362.056 345.24C361.491 345.861 360.644 346.325 359.359 346.325C358.773 346.325 358.469 346.18 358.266 346.028C358.022 345.846 357.763 345.532 357.464 344.968C357.232 344.53 357.038 344.072 356.804 343.519C356.721 343.324 356.634 343.117 356.538 342.895C356.199 342.112 355.772 341.189 355.163 340.345C355.003 340.124 354.921 339.971 354.88 339.873C354.981 339.797 355.188 339.665 355.584 339.514C356.96 338.987 359.061 338.804 360.492 338.752ZM354.844 339.737C354.846 339.738 354.849 339.752 354.848 339.778C354.841 339.749 354.842 339.737 354.844 339.737Z" fill="#15F3E6" stroke="black" stroke-width="4" stroke-linecap="round" stroke-linejoin="round"/>
<path d="M343.515 406.766C344.409 406.86 345.025 407.289 345.45 407.909C345.922 408.597 346.181 409.571 346.118 410.611C346.054 411.647 345.679 412.594 345.08 413.253C344.515 413.874 343.667 414.339 342.382 414.339C341.796 414.339 341.493 414.193 341.29 414.042C341.045 413.86 340.787 413.545 340.488 412.982C340.255 412.544 340.061 412.086 339.828 411.533C339.745 411.338 339.657 411.13 339.561 410.908C339.222 410.125 338.795 409.202 338.186 408.359C338.026 408.138 337.944 407.984 337.904 407.887C338.005 407.81 338.212 407.678 338.607 407.527C339.983 407.001 342.084 406.818 343.515 406.766ZM337.867 407.751C337.869 407.751 337.873 407.766 337.871 407.791C337.864 407.763 337.865 407.75 337.867 407.751Z" fill="#15F3E6" stroke="black" stroke-width="4" stroke-linecap="round" stroke-linejoin="round"/>
<path d="M289.141 371.138C289.126 371.162 289.116 371.174 289.114 371.174C289.113 371.175 289.12 371.163 289.141 371.138ZM289.877 370.531C289.929 370.495 289.983 370.457 290.041 370.419C290.913 369.834 292.146 369.175 293.5 368.514C294.676 367.94 295.89 367.391 296.954 366.917C296.988 367.139 297.038 367.367 297.109 367.589C297.285 368.144 297.764 369.166 298.976 369.508C299.211 369.575 299.411 369.635 299.591 369.703C299.736 369.758 299.84 369.807 299.911 369.848C299.931 370.558 299.789 370.899 299.701 371.041C299.625 371.165 299.507 371.275 299.236 371.355C298.556 371.557 297.309 371.43 295.853 370.823C294.911 370.431 293.756 370.444 292.987 370.466C292.595 370.478 292.247 370.495 291.92 370.512C291.423 370.537 290.971 370.559 290.475 370.555C290.241 370.554 290.044 370.544 289.877 370.531Z" fill="#32FF11" stroke="black" stroke-width="4" stroke-linecap="round" stroke-linejoin="round"/>
<path d="M357.991 403.599C357.976 403.623 357.965 403.635 357.964 403.635C357.962 403.636 357.97 403.624 357.991 403.599ZM358.726 402.992C358.778 402.956 358.833 402.918 358.89 402.88C359.762 402.295 360.995 401.636 362.349 400.975C363.526 400.401 364.739 399.852 365.803 399.378C365.838 399.6 365.888 399.828 365.958 400.05C366.134 400.605 366.614 401.627 367.825 401.969C368.061 402.036 368.261 402.096 368.441 402.164C368.586 402.219 368.689 402.268 368.761 402.309C368.781 403.019 368.639 403.36 368.551 403.502C368.474 403.626 368.357 403.736 368.086 403.816C367.406 404.018 366.159 403.891 364.703 403.284C363.761 402.892 362.605 402.905 361.837 402.927C361.444 402.939 361.097 402.956 360.769 402.973C360.273 402.998 359.821 403.02 359.324 403.016C359.091 403.015 358.893 403.005 358.726 402.992Z" fill="#32FF11" stroke="black" stroke-width="4" stroke-linecap="round" stroke-linejoin="round"/>
<path d="M296.686 408.237C296.671 408.26 296.661 408.273 296.659 408.273C296.658 408.273 296.666 408.261 296.686 408.237ZM297.422 407.629C297.474 407.593 297.529 407.555 297.586 407.517C298.458 406.933 299.691 406.273 301.045 405.612C302.221 405.039 303.435 404.49 304.499 404.015C304.534 404.237 304.583 404.465 304.654 404.688C304.83 405.242 305.309 406.264 306.521 406.607C306.756 406.673 306.956 406.734 307.137 406.802C307.281 406.856 307.385 406.905 307.456 406.946C307.476 407.656 307.334 407.998 307.247 408.139C307.17 408.263 307.053 408.373 306.782 408.453C306.101 408.655 304.854 408.528 303.399 407.922C302.456 407.529 301.301 407.542 300.532 407.564C300.14 407.576 299.793 407.593 299.465 407.61C298.968 407.635 298.516 407.658 298.02 407.654C297.787 407.652 297.589 407.643 297.422 407.629Z" fill="#32FF11" stroke="black" stroke-width="4" stroke-linecap="round" stroke-linejoin="round"/>
<path d="M325.785 386.491C324.829 383.89 329.631 382.242 331.456 381.502C332.624 382.908 333.664 382.68 334.748 384.645C336.598 388.002 337.877 387.909 334.15 388.829C332.018 389.355 330.658 389.739 328.298 388.969C327.087 388.574 326.351 388.031 325.785 386.491Z" fill="#CF0DFF"/>
<path d="M331.891 381.315C330.603 381.935 324.737 383.641 325.785 386.491C326.351 388.031 327.087 388.574 328.298 388.969C330.658 389.739 332.018 389.355 334.15 388.829C337.877 387.909 336.598 388.002 334.748 384.645C333.647 382.649 332.591 382.916 331.402 381.436" stroke="black" stroke-width="4" stroke-linecap="round" stroke-linejoin="round"/>
<path d="M275.327 357.895C274.371 355.294 279.172 353.645 280.998 352.906C282.166 354.312 283.206 354.083 284.289 356.049C286.14 359.405 287.418 359.312 283.692 360.232C281.559 360.759 280.2 361.142 277.84 360.373C276.629 359.978 275.893 359.434 275.327 357.895Z" fill="#CF0DFF"/>
<path d="M281.433 352.718C280.145 353.338 274.279 355.044 275.327 357.895C275.893 359.434 276.629 359.978 277.84 360.373C280.2 361.142 281.559 360.759 283.692 360.232C287.418 359.312 286.14 359.405 284.289 356.049C283.189 354.053 282.133 354.319 280.944 352.839" stroke="black" stroke-width="4" stroke-linecap="round" stroke-linejoin="round"/>
<path d="M322.013 351.325C321.056 348.724 325.858 347.076 327.684 346.336C328.851 347.742 329.891 347.514 330.975 349.479C332.826 352.836 334.104 352.742 330.377 353.663C328.245 354.189 326.886 354.572 324.526 353.803C323.314 353.408 322.579 352.865 322.013 351.325Z" fill="#CF0DFF"/>
<path d="M328.119 346.149C326.831 346.768 320.965 348.475 322.013 351.325C322.579 352.865 323.314 353.408 324.526 353.803C326.886 354.572 328.245 354.189 330.377 353.663C334.104 352.742 332.826 352.836 330.975 349.479C329.874 347.483 328.819 347.75 327.629 346.269" stroke="black" stroke-width="4" stroke-linecap="round" stroke-linejoin="round"/>
<path d="M318.712 416.247C317.755 413.646 322.557 411.998 324.383 411.258C325.55 412.664 326.59 412.436 327.674 414.401C329.525 417.758 330.803 417.665 327.076 418.585C324.944 419.111 323.585 419.494 321.225 418.725C320.013 418.33 319.278 417.787 318.712 416.247Z" fill="#CF0DFF"/>
<path d="M324.818 411.071C323.53 411.69 317.664 413.397 318.712 416.247C319.278 417.787 320.013 418.33 321.225 418.725C323.585 419.494 324.944 419.111 327.076 418.585C330.803 417.665 329.525 417.758 327.674 414.401C326.573 412.405 325.518 412.672 324.328 411.191" stroke="black" stroke-width="4" stroke-linecap="round" stroke-linejoin="round"/>
<path d="M280.221 387.145C280.221 384.021 283.919 383.511 285.354 383.193C285.799 385.059 286.567 385.09 286.814 387.549C287.236 391.748 288.134 391.993 285.354 391.993C283.763 391.993 282.737 392.045 281.316 390.557C280.587 389.792 280.221 388.994 280.221 387.145Z" fill="#FF0D0D"/>
<path d="M285.699 383.105C284.662 383.438 280.221 383.721 280.221 387.145C280.221 388.994 280.587 389.792 281.316 390.557C282.737 392.045 283.763 391.993 285.354 391.993C288.134 391.993 287.236 391.748 286.814 387.549C286.564 385.052 285.775 385.058 285.333 383.105" stroke="black" stroke-width="4" stroke-linecap="round" stroke-linejoin="round"/>
<path d="M344.355 363.572C344.355 360.448 348.053 359.938 349.488 359.62C349.933 361.486 350.701 361.517 350.948 363.976C351.37 368.175 352.267 368.42 349.487 368.42C347.897 368.42 346.871 368.472 345.45 366.984C344.721 366.22 344.355 365.421 344.355 363.572Z" fill="#FF0D0D"/>
<path d="M349.832 359.532C348.796 359.865 344.355 360.148 344.355 363.572C344.355 365.421 344.721 366.22 345.45 366.984C346.871 368.472 347.897 368.42 349.487 368.42C352.267 368.42 351.37 368.175 350.948 363.976C350.697 361.479 349.909 361.486 349.467 359.532" stroke="black" stroke-width="4" stroke-linecap="round" stroke-linejoin="round"/>
<path d="M315.117 368.596C315.117 365.472 318.816 364.962 320.25 364.644C320.695 366.51 321.464 366.541 321.711 369C322.132 373.199 323.03 373.444 320.25 373.444C318.659 373.444 317.633 373.496 316.213 372.007C315.483 371.243 315.117 370.445 315.117 368.596Z" fill="#FF0D0D"/>
<path d="M320.595 364.556C319.558 364.888 315.117 365.172 315.117 368.596C315.117 370.445 315.483 371.243 316.213 372.007C317.633 373.496 318.659 373.444 320.25 373.444C323.03 373.444 322.132 373.199 321.711 369C321.46 366.503 320.671 366.509 320.23 364.556" stroke="black" stroke-width="4" stroke-linecap="round" stroke-linejoin="round"/>
<defs>
<filter id="filter0_d" x="40.1446" y="0" width="578.711" height="457.25" filterUnits="userSpaceOnUse" color-interpolation-filters="sRGB">
<feFlood flood-opacity="0" result="BackgroundImageFix"/>
<feColorMatrix in="SourceAlpha" type="matrix" values="0 0 0 0 0 0 0 0 0 0 0 0 0 0 0 0 0 0 127 0"/>
<feOffset dy="4"/>
<feGaussianBlur stdDeviation="2"/>
<feColorMatrix type="matrix" values="0 0 0 0 0 0 0 0 0 0 0 0 0 0 0 0 0 0 0.25 0"/>
<feBlend mode="normal" in2="BackgroundImageFix" result="effect1_dropShadow"/>
<feBlend mode="normal" in="SourceGraphic" in2="effect1_dropShadow" result="shape"/>
</filter>
<filter id="filter1_i" x="136.876" y="78" width="386.247" height="337" filterUnits="userSpaceOnUse" color-interpolation-filters="sRGB">
<feFlood flood-opacity="0" result="BackgroundImageFix"/>
<feBlend mode="normal" in="SourceGraphic" in2="BackgroundImageFix" result="shape"/>
<feColorMatrix in="SourceAlpha" type="matrix" values="0 0 0 0 0 0 0 0 0 0 0 0 0 0 0 0 0 0 127 0" result="hardAlpha"/>
<feOffset dy="4"/>
<feGaussianBlur stdDeviation="2"/>
<feComposite in2="hardAlpha" operator="arithmetic" k2="-1" k3="1"/>
<feColorMatrix type="matrix" values="0 0 0 0 0 0 0 0 0 0 0 0 0 0 0 0 0 0 0.25 0"/>
<feBlend mode="normal" in2="shape" result="effect1_innerShadow"/>
</filter>
</defs>
</svg>
